<svg xmlns="http://www.w3.org/2000/svg" width="800" height="800" viewBox="0 0 800 800" fill="none">
  <g stroke="#141412" stroke-width="1.3" stroke-linecap="round" stroke-linejoin="round" opacity="0.14">
    <!-- ═══════════════════════════════════════════════════════
         1. Halved Avocado with Pit (Top-Left, ~80, 80)
         ═══════════════════════════════════════════════════════ -->
    <g transform="translate(60, 50) rotate(-15)">
      <!-- Outer skin -->
      <path d="M45 10 C68 10 82 32 82 62 C82 98 68 118 45 118 C22 118 8 98 8 62 C8 32 22 10 45 10 Z" />
      <!-- Inner flesh boundary -->
      <path d="M45 18 C62 18 73 36 73 62 C73 92 62 109 45 109 C28 109 17 92 17 62 C17 36 28 18 45 18 Z" stroke-dasharray="2 2" />
      <!-- Pit (Seed) -->
      <circle cx="45" cy="74" r="18" />
      <path d="M38 65 C48 60 55 68 56 78" stroke-width="0.8" />
      <!-- Skin stipples -->
      <circle cx="15" cy="50" r="0.6" fill="#141412" />
      <circle cx="75" cy="70" r="0.6" fill="#141412" />
      <circle cx="45" cy="114" r="0.6" fill="#141412" />
    </g>

    <!-- ═══════════════════════════════════════════════════════
         2. Bell Pepper / Capsicum (~270, 70)
         ═══════════════════════════════════════════════════════ -->
    <g transform="translate(250, 45) rotate(10)">
      <!-- Stem -->
      <path d="M42 12 C44 2 40 -6 34 -10 C32 -11 36 -12 42 -7 C48 -2 48 6 46 12" />
      <!-- Calyx -->
      <path d="M30 14 C36 12 48 12 56 14 C52 17 48 18 43 18 C38 18 34 17 30 14 Z" />
      <!-- Body lobes -->
      <path d="M30 14 C20 18 10 32 10 52 C10 75 22 92 34 94 C38 86 40 76 40 52 C40 32 36 18 30 14 Z" />
      <path d="M34 94 C40 95 48 95 54 94 C54 76 56 52 56 32 C56 18 48 14 43 14 C38 14 36 18 36 32 C36 52 38 76 34 94 Z" />
      <path d="M54 94 C66 92 78 75 78 52 C78 32 68 18 56 14 C62 20 64 36 64 52 C64 74 60 86 54 94 Z" />
      <!-- Crease details -->
      <path d="M26 38 C28 55 30 72 32 82" stroke-width="0.8" />
      <path d="M62 38 C60 55 58 72 56 82" stroke-width="0.8" />
    </g>

    <!-- ═══════════════════════════════════════════════════════
         3. Sliced Lemon / Citrus Wheel (~460, 60)
         ═══════════════════════════════════════════════════════ -->
    <g transform="translate(440, 40)">
      <!-- Outer rind -->
      <circle cx="45" cy="45" r="42" />
      <!-- Pith line -->
      <circle cx="45" cy="45" r="37" />
      <circle cx="45" cy="45" r="6" />
      <!-- 8 Citrus wedges -->
      <path d="M45 14 C52 14 56 18 58 24 L48 40 C46 39 44 39 42 40 L32 24 C34 18 38 14 45 14 Z" />
      <path d="M66 22 C72 26 74 32 74 38 L54 43 C53 41 52 40 50 39 L57 26 C60 24 63 23 66 22 Z" />
      <path d="M76 45 C76 52 72 56 66 58 L50 48 C51 46 51 44 50 42 L74 38 C75 40 76 42 76 45 Z" />
      <path d="M68 66 C64 72 58 74 52 74 L47 54 C49 53 50 52 51 50 L64 57 C65 60 67 63 68 66 Z" />
      <path d="M45 76 C38 76 34 72 32 66 L42 50 C44 51 46 51 48 50 L58 66 C56 72 52 76 45 76 Z" />
      <path d="M24 68 C18 64 16 58 16 52 L36 47 C37 49 38 50 40 51 L33 64 C30 65 27 67 24 68 Z" />
      <path d="M14 45 C14 38 18 34 24 32 L40 42 C39 44 39 46 40 48 L16 52 C15 50 14 47 14 45 Z" />
      <path d="M22 24 C26 18 32 16 38 16 L43 36 C41 37 40 38 39 40 L26 33 C24 30 23 27 22 24 Z" />
    </g>

    <!-- ═══════════════════════════════════════════════════════
         4. Sliced Tomato (~660, 60)
         ═══════════════════════════════════════════════════════ -->
    <g transform="translate(630, 40) rotate(-10)">
      <!-- Outer perimeter -->
      <circle cx="45" cy="45" r="40" />
      <!-- Inner core line -->
      <circle cx="45" cy="45" r="35" stroke-dasharray="3 2" />
      <!-- Central core -->
      <circle cx="45" cy="45" r="8" />
      <!-- 4 Locular seed cavities -->
      <path d="M45 16 C55 16 64 24 62 34 C58 38 52 38 48 38 C46 32 46 24 45 16 Z" />
      <path d="M74 45 C74 55 66 64 56 62 C52 58 52 52 52 48 C58 46 66 46 74 45 Z" />
      <path d="M45 74 C35 74 26 66 28 56 C32 52 38 52 42 52 C44 58 44 66 45 74 Z" />
      <path d="M16 45 C16 35 24 26 34 28 C38 32 38 38 38 42 C32 44 24 44 16 45 Z" />
      <!-- Seeds inside cavities -->
      <ellipse cx="55" cy="26" rx="2" ry="3" transform="rotate(20 55 26)" />
      <ellipse cx="64" cy="54" rx="3" ry="2" transform="rotate(-15 64 54)" />
      <ellipse cx="35" cy="64" rx="2" ry="3" transform="rotate(30 35 64)" />
      <ellipse cx="26" cy="36" rx="3" ry="2" transform="rotate(45 26 36)" />
    </g>

    <!-- ═══════════════════════════════════════════════════════
         5. Garlic Head & Clove (~100, 240)
         ═══════════════════════════════════════════════════════ -->
    <g transform="translate(80, 210) rotate(15)">
      <!-- Stem neck -->
      <path d="M38 12 L38 2 C38 0 44 0 44 2 L44 12" />
      <!-- Garlic cloves contour -->
      <path d="M41 12 C32 15 20 25 18 42 C16 58 26 72 41 72 C56 72 66 58 64 42 C62 25 50 15 41 12 Z" />
      <!-- Clove crease lines -->
      <path d="M41 12 C36 22 34 45 35 72" />
      <path d="M41 12 C46 22 48 45 47 72" />
      <path d="M28 26 C26 40 28 58 35 68" />
      <path d="M54 26 C56 40 54 58 47 68" />
      <!-- Root base -->
      <path d="M36 72 C34 76 33 80 32 82 M41 72 C41 77 40 81 41 84 M46 72 C48 76 49 80 50 82" stroke-width="0.8" />
      <!-- Separated clove nearby -->
      <g transform="translate(68, 28) rotate(35)">
        <path d="M12 4 C18 10 22 22 18 32 C14 40 8 42 4 40 C0 38 -2 30 2 20 C6 10 10 6 12 4 Z" />
        <path d="M12 4 C10 14 8 28 4 40" stroke-width="0.8" />
      </g>
    </g>

    <!-- ═══════════════════════════════════════════════════════
         6. Olive Branch with 3 Olives (~280, 230)
         ═══════════════════════════════════════════════════════ -->
    <g transform="translate(240, 200) rotate(-20)">
      <!-- Main stem -->
      <path d="M10 80 C40 65 75 50 115 35" stroke-width="1.6" />
      <!-- Olive leaves -->
      <path d="M35 70 C42 55 58 50 68 54 C62 66 48 72 35 70 Z" />
      <path d="M35 70 L52 61" stroke-width="0.7" />

      <path d="M60 56 C75 42 90 40 98 46 C90 58 76 60 60 56 Z" />
      <path d="M60 56 L79 48" stroke-width="0.7" />

      <path d="M85 45 C100 30 118 28 126 34 C116 46 100 48 85 45 Z" />

      <!-- Leaves on opposite side -->
      <path d="M50 62 C42 48 30 46 22 52 C30 62 42 66 50 62 Z" />
      <path d="M78 50 C70 36 58 34 50 40 C58 50 70 54 78 50 Z" />
      <path d="M105 38 C98 22 84 20 78 28 C86 38 98 42 105 38 Z" />

      <!-- Hanging Olives -->
      <path d="M45 67 L42 78" stroke-width="0.9" />
      <ellipse cx="40" cy="88" rx="8" ry="11" transform="rotate(15 40 88)" />

      <path d="M72 53 L74 65" stroke-width="0.9" />
      <ellipse cx="76" cy="74" rx="7" ry="10" transform="rotate(-10 76 74)" />
    </g>

    <!-- ═══════════════════════════════════════════════════════
         7. Curving Chili Pepper (~470, 220)
         ═══════════════════════════════════════════════════════ -->
    <g transform="translate(450, 190) rotate(25)">
      <!-- Curved Horn Body -->
      <path d="M22 18 C30 35 44 65 42 95 C40 120 28 140 12 152 C10 153 11 150 14 145 C24 130 30 110 30 88 C30 60 20 35 14 18 Z" />
      <!-- Calyx cap -->
      <path d="M12 18 C14 13 24 13 26 18 C24 20 20 21 18 21 C15 21 13 19 12 18 Z" />
      <!-- Stem -->
      <path d="M19 14 C18 8 22 4 28 2" stroke-width="1.5" />
      <!-- Shine ridge -->
      <path d="M24 38 C32 60 34 85 32 105" stroke-width="0.7" stroke-dasharray="4 3" />
    </g>

    <!-- ═══════════════════════════════════════════════════════
         8. Button Mushroom & Slice (~660, 230)
         ═══════════════════════════════════════════════════════ -->
    <g transform="translate(640, 210) rotate(-15)">
      <!-- Mushroom Cap -->
      <path d="M15 45 C15 20 65 20 65 45 C65 52 15 52 15 45 Z" />
      <!-- Gills line under cap -->
      <path d="M18 48 C28 54 52 54 62 48" stroke-width="0.9" />
      <!-- Stem -->
      <path d="M32 52 L30 75 C30 80 50 80 50 75 L48 52" />
      <!-- Texture spots on cap -->
      <path d="M30 30 C36 28 42 32 40 35" stroke-width="0.7" />
      <path d="M48 34 C52 32 56 36 54 38" stroke-width="0.7" />

      <!-- Sliced Mushroom Silhouette nearby -->
      <g transform="translate(60, 25) scale(0.7) rotate(25)">
        <path d="M15 40 C15 22 55 22 55 40 C55 46 45 48 42 48 L44 68 C44 72 26 72 26 68 L28 48 C25 48 15 46 15 40 Z" />
        <circle cx="35" cy="46" r="4" />
      </g>
    </g>

    <!-- ═══════════════════════════════════════════════════════
         9. Fresh Garden Pea Pod (~90, 420)
         ═══════════════════════════════════════════════════════ -->
    <g transform="translate(70, 390) rotate(20)">
      <!-- Outer curved pod shell -->
      <path d="M10 20 C30 15 75 22 105 50 C110 55 106 60 98 56 C70 42 35 38 12 42 C8 43 6 38 8 32 C9 26 8 22 10 20 Z" />
      <!-- Inner open seam showing peas -->
      <path d="M16 28 C35 24 65 30 92 48" stroke-width="0.9" />
      <!-- 5 round peas -->
      <circle cx="28" cy="29" r="6" />
      <circle cx="42" cy="32" r="6.5" />
      <circle cx="57" cy="37" r="6.5" />
      <circle cx="72" cy="43" r="6" />
      <circle cx="85" cy="50" r="5" />
      <!-- Stem and calyx at base -->
      <path d="M10 20 L2 14 M9 24 L2 22" stroke-width="1.2" />
    </g>

    <!-- ═══════════════════════════════════════════════════════
         10. Fresh Rosemary Sprig (~270, 420)
         ═══════════════════════════════════════════════════════ -->
    <g transform="translate(250, 380) rotate(-30)">
      <!-- Main stem -->
      <path d="M10 110 C35 85 65 55 95 15" stroke-width="1.8" />
      <!-- Rosemary needles alternating -->
      <path d="M25 96 L14 85 M25 96 L38 88" stroke-width="1.3" />
      <path d="M38 82 L26 70 M38 82 L52 74" stroke-width="1.3" />
      <path d="M52 66 L40 54 M52 66 L66 58" stroke-width="1.3" />
      <path d="M66 50 L54 38 M66 50 L80 42" stroke-width="1.3" />
      <path d="M78 35 L68 22 M78 35 L92 26" stroke-width="1.3" />
      <path d="M88 22 L82 10 M88 22 L98 12" stroke-width="1.3" />
      <path d="M95 15 L98 2" stroke-width="1.3" />
    </g>

    <!-- ═══════════════════════════════════════════════════════
         11. Halved Red Onion with Rings (~460, 420)
         ═══════════════════════════════════════════════════════ -->
    <g transform="translate(430, 390)">
      <!-- Outer skin contour -->
      <path d="M45 10 C70 10 85 30 85 55 C85 78 68 95 45 95 C22 95 5 78 5 55 C5 30 20 10 45 10 Z" />
      <!-- Top stem pinch -->
      <path d="M41 10 L45 2 L49 10" />
      <!-- Concentric inner rings -->
      <path d="M45 20 C65 20 76 36 76 55 C76 74 62 87 45 87 C28 87 14 74 14 55 C14 36 25 20 45 20 Z" />
      <path d="M45 30 C59 30 68 42 68 55 C68 69 57 79 45 79 C33 79 22 69 22 55 C22 42 31 30 45 30 Z" />
      <path d="M45 40 C54 40 60 47 60 55 C60 64 53 70 45 70 C37 70 30 64 30 55 C30 47 36 40 45 40 Z" />
      <!-- Core -->
      <ellipse cx="45" cy="55" rx="5" ry="6" />
      <!-- Root fibers at bottom -->
      <path d="M42 95 L40 102 M45 95 L45 104 M48 95 L50 102" stroke-width="0.9" />
    </g>

    <!-- ═══════════════════════════════════════════════════════
         12. Heirloom Baby Carrot with Greens (~650, 420)
         ═══════════════════════════════════════════════════════ -->
    <g transform="translate(630, 380) rotate(35)">
      <!-- Foliage leafy tuft -->
      <path d="M42 22 C42 12 36 4 32 -4 M42 22 C46 10 52 2 56 -6 M42 22 C40 14 44 6 46 -2" stroke-width="1.1" />
      <path d="M34 2 C30 4 28 8 30 12 M50 2 C54 4 56 8 54 12" stroke-width="0.8" />
      <!-- Carrot Root -->
      <path d="M34 22 C34 20 50 20 50 22 C48 55 46 95 42 135 C38 95 36 55 34 22 Z" />
      <!-- Texture horizontal striations -->
      <path d="M37 38 C41 39 45 39 47 38" stroke-width="0.8" />
      <path d="M38 55 C41 56 44 56 46 55" stroke-width="0.8" />
      <path d="M39 74 C41 75 43 75 45 74" stroke-width="0.8" />
      <path d="M40 95 C41 96 43 96 44 95" stroke-width="0.8" />
    </g>

    <!-- ═══════════════════════════════════════════════════════
         13. Artichoke Globe (~90, 600)
         ═══════════════════════════════════════════════════════ -->
    <g transform="translate(60, 560) rotate(-10)">
      <!-- Stem -->
      <path d="M42 75 L42 98 C42 101 48 101 48 98 L48 75" stroke-width="1.5" />
      <!-- Outer bract scales -->
      <path d="M30 75 C18 68 15 52 20 38 C28 42 34 55 38 68" />
      <path d="M60 75 C72 68 75 52 70 38 C62 42 56 55 52 68" />
      <!-- Middle overlapping scales -->
      <path d="M26 42 C24 28 32 18 45 10 C40 22 38 34 38 48" />
      <path d="M64 42 C66 28 58 18 45 10 C50 22 52 34 52 48" />
      <path d="M36 50 C32 35 40 24 45 18 C50 24 58 35 54 50" />
      <!-- Center heart top bracts -->
      <path d="M40 24 C42 16 45 12 45 12 C45 12 48 16 50 24 Z" />
    </g>

    <!-- ═══════════════════════════════════════════════════════
         14. Sliced Cucumber / Zucchini Disc (~270, 600)
         ═══════════════════════════════════════════════════════ -->
    <g transform="translate(250, 570) rotate(15)">
      <!-- Outer dark ribbed skin -->
      <circle cx="42" cy="42" r="38" />
      <circle cx="42" cy="42" r="34" stroke-dasharray="3 3" />
      <!-- Inner translucent core with seed arcs -->
      <circle cx="42" cy="42" r="22" stroke-width="0.8" />
      <!-- Delicate elongated seeds arranged radially -->
      <path d="M42 26 C44 32 44 36 42 38 C40 36 40 32 42 26 Z" stroke-width="0.8" />
      <path d="M42 58 C44 52 44 48 42 46 C40 48 40 52 42 58 Z" stroke-width="0.8" />
      <path d="M26 42 C32 44 36 44 38 42 C36 40 32 40 26 42 Z" stroke-width="0.8" />
      <path d="M58 42 C52 44 48 44 46 42 C48 40 52 40 58 42 Z" stroke-width="0.8" />
      <path d="M31 31 C37 35 39 37 38 40 C36 38 34 36 31 31 Z" stroke-width="0.8" />
      <path d="M53 53 C47 49 45 47 46 44 C48 46 50 48 53 53 Z" stroke-width="0.8" />
    </g>

    <!-- ═══════════════════════════════════════════════════════
         15. Fresh Italian Basil / Mint Sprig (~460, 600)
         ═══════════════════════════════════════════════════════ -->
    <g transform="translate(440, 560) rotate(-25)">
      <!-- Stem -->
      <path d="M45 90 C45 60 45 35 45 15" stroke-width="1.6" />
      <!-- Top pair of leaves -->
      <path d="M45 18 C56 8 70 12 72 26 C68 36 54 36 45 28 Z" />
      <path d="M45 20 L62 23" stroke-width="0.7" />
      <path d="M45 18 C34 8 20 12 18 26 C22 36 36 36 45 28 Z" />
      <path d="M45 20 L28 23" stroke-width="0.7" />

      <!-- Middle pair of large leaves -->
      <path d="M45 45 C64 35 84 42 86 60 C78 72 58 70 45 56 Z" />
      <path d="M45 48 L72 54" stroke-width="0.7" />
      <path d="M45 45 C26 35 6 42 4 60 C12 72 32 70 45 56 Z" />
      <path d="M45 48 L18 54" stroke-width="0.7" />

      <!-- Terminal shoot tip -->
      <path d="M45 15 C42 8 45 2 45 2 C45 2 48 8 45 15 Z" />
    </g>

    <!-- ═══════════════════════════════════════════════════════
         16. Cherry Tomato on Twig (~660, 600)
         ═══════════════════════════════════════════════════════ -->
    <g transform="translate(640, 580)">
      <!-- Vine Branch -->
      <path d="M10 25 C30 20 60 15 85 22" stroke-width="1.5" />
      <path d="M45 18 L45 32" stroke-width="1.2" />
      <!-- Sepal Calyx star -->
      <path d="M45 32 L38 28 M45 32 L52 28 M45 32 L40 38 M45 32 L50 38 M45 32 L45 26" stroke-width="1.1" />
      <!-- Tomato Globe -->
      <circle cx="45" cy="52" r="20" />
      <path d="M38 42 C44 38 48 40 50 44" stroke-width="0.7" />
    </g>

    <!-- ═══════════════════════════════════════════════════════
         17. Bay Leaves & Tellicherry Peppercorn Accents (~140, 740)
         ═══════════════════════════════════════════════════════ -->
    <g transform="translate(120, 710) rotate(10)">
      <path d="M10 35 C25 20 48 18 62 26 C55 42 35 48 10 35 Z" />
      <path d="M10 35 L45 28" stroke-width="0.7" />

      <path d="M40 32 C58 20 80 24 90 35 C78 48 58 48 40 32 Z" />
      <path d="M40 32 L72 31" stroke-width="0.7" />

      <!-- Scattered peppercorns / coriander seeds -->
      <circle cx="75" cy="15" r="3.5" />
      <circle cx="74" cy="14" r="1" fill="#141412" />
      <circle cx="95" cy="22" r="3" />
      <circle cx="62" cy="52" r="3.5" />
      <circle cx="28" cy="18" r="2.8" />
    </g>

    <!-- ═══════════════════════════════════════════════════════
         18. Broccoli / Romanesco Floret (~360, 730)
         ═══════════════════════════════════════════════════════ -->
    <g transform="translate(340, 700) rotate(-10)">
      <!-- Stem -->
      <path d="M42 60 L40 85 C40 88 48 88 48 85 L46 60" stroke-width="1.4" />
      <!-- Cloud-like curd clusters -->
      <path d="M38 60 C25 58 18 48 22 38 C18 32 20 22 28 18 C32 10 44 10 48 16 C54 10 66 12 68 20 C76 25 78 35 74 42 C78 50 72 60 58 60 Z" />
      <!-- Internal curd curves -->
      <path d="M32 35 C38 32 44 36 42 42" stroke-width="0.8" />
      <path d="M48 30 C54 28 60 32 58 38" stroke-width="0.8" />
      <path d="M38 48 C44 46 50 48 48 54" stroke-width="0.8" />
    </g>

    <!-- ═══════════════════════════════════════════════════════
         19. Ginger / Turmeric Rhizome Knots (~560, 720)
         ═══════════════════════════════════════════════════════ -->
    <g transform="translate(540, 700) rotate(15)">
      <!-- Knobby root contour -->
      <path d="M15 45 C15 35 25 30 35 32 C38 20 52 18 60 25 C70 20 85 28 82 42 C92 48 94 62 85 70 C75 75 60 68 55 60 C45 68 32 68 25 60 C18 62 14 55 15 45 Z" />
      <!-- Horizontal ring bands -->
      <path d="M22 38 C25 44 26 50 25 55" stroke-width="0.8" />
      <path d="M42 28 C45 36 46 44 44 50" stroke-width="0.8" />
      <path d="M68 32 C72 38 72 46 70 52" stroke-width="0.8" />
      <path d="M72 58 C75 62 78 64 80 62" stroke-width="0.8" />
    </g>
  </g>
</svg>
